<svg xmlns="http://www.w3.org/2000/svg" viewBox="0 0 36.079 49.59"><path d="M 2.25410155,18.02753955 C 2.25410155,9.32441455 9.32441455,2.25410155 18.03925855,2.25410155 C 26.75410155,2.25410155 33.82441455,9.32441455 33.82441455,18.02753955 C 33.82441455,26.74628955 26.75410155,33.81269555 18.03925855,33.81269555 C 9.32441455,33.81269555 2.25410155,26.74628955 2.25410155,18.02753955 Z M 18.03925855,5.26582055 C 10.98847755,5.26582055 5.25800855,10.98066455 5.25800855,18.02753955 C 5.25800855,25.08613255 10.98847755,30.80488255 18.03925855,30.80488255 C 25.09003955,30.80488255 30.82050855,25.08613255 30.82050855,18.02753955 C 30.82050855,10.98066455 25.09003955,5.26582055 18.03925855,5.26582055" fill="currentColor" fill-rule="evenodd"/><path d="M 18.03925855,30.80488255 C 18.85957055,30.80488255 19.53925855,31.48457055 19.53925855,32.31269555 L 19.53925855,45.82832055 C 19.53925855,46.65644555 18.85957055,47.33613255 18.03925855,47.33613255 C 17.21503955,47.33613255 16.53535155,46.65644555 16.53535155,45.82832055 L 16.53535155,32.31269555 C 16.53535155,31.48457055 17.21503955,30.80488255 18.03925855,30.80488255" fill="currentColor" fill-rule="evenodd"/><path d="M 11.08613355,39.82050855 C 11.08613355,38.98847655 11.76972755,38.32050855 12.59003955,38.32050855 L 23.48847755,38.32050855 C 24.30878955,38.32050855 24.98847755,38.98847655 24.98847755,39.82050855 C 24.98847755,40.64863255 24.30878955,41.32050855 23.48847755,41.32050855 L 12.59003955,41.32050855 C 11.76972755,41.32050855 11.08613355,40.64863255 11.08613355,39.82050855" fill="currentColor" fill-rule="evenodd"/></svg>