<svg xmlns="http://www.w3.org/2000/svg" viewBox="0 0 25.541 49.58"><path d="M 12.7719717701,9.76926029589 C 13.6000967701,9.76926029589 14.2719717701,10.4411352959 14.2719717701,11.2692602959 L 14.2719717701,32.5583222959 C 16.0219717701,33.1794162959 17.2797837701,34.8473852959 17.2797837701,36.8083222959 C 17.2797837701,39.2966042959 15.2602527701,41.3161352959 12.7719717701,41.3161352959 C 10.2797837701,41.3161352959 8.26415877014,39.2966042959 8.26415877014,36.8083222959 C 8.26415877014,34.8473852959 9.51806477014,33.1794162959 11.2680647701,32.5583222959 L 11.2680647701,11.2692602959 C 11.2680647701,10.4411352959 11.9399407701,9.76926029589 12.7719717701,9.76926029589" fill="currentColor"/><path d="M 16.8149407701,30.4020722959 C 17.8774407701,31.0895722959 18.7524407701,32.0387912959 19.3579087701,33.1598852959 C 19.9672837701,34.2770722959 20.2836907701,35.5387912959 20.2836907701,36.8083222959 Z M 16.8149407701,30.4020722959 C 16.4946277701,30.1911352959 16.2368147701,29.9216042959 16.0571277701,29.5895722959 C 15.8735337701,29.2497292959 15.7758777701,28.8825412959 15.7758777701,28.4997292959 L 15.7758777701,8.26144829589 C 15.7758777701,7.46066629589 15.4594717701,6.69894829589 14.8969717701,6.14035429589 C 14.3305647701,5.57004129589 13.5688467701,5.26144829589 12.7719717701,5.26144829589 C 11.9750967701,5.26144829589 11.2094717701,5.57004129589 10.6430647701,6.14035429589 C 10.0805647701,6.69894829589 9.76415877014,7.46066629589 9.76415877014,8.26144829589 L 9.76415877014,28.4997292959 C 9.76415877014,28.8825412959 9.67040877014,29.2497292959 9.48290877014,29.5817602959 C 9.30322177014,29.9098852959 9.04540877014,30.1911352959 8.72900277014,30.3903542959 C 7.61572177014,31.1208222959 6.70947177014,32.1286352959 6.10400277014,33.3083222959 C 5.49462777014,34.4997292959 5.20556477014,35.8200412959 5.26806477014,37.1481662959 C 5.35790877014,39.1051982959 6.20947177014,40.9567602959 7.64306477014,42.2966042959 C 9.07665877014,43.6364482959 10.9790027701,44.3630102959 12.9360337701,44.3161352959 C 14.9008777701,44.2731662959 16.7680647701,43.4645722959 18.1430647701,42.0544162959 C 19.5141587701,40.6559792959 20.2797837701,38.7653542959 20.2836907701,36.8083222959 Z M 18.0415027701,28.4997292959 L 18.0297837701,28.4997292959 L 17.6274407701,29.1325412959 Z M 18.4477527701,27.8825412959 L 18.4282217701,27.8630102959 L 18.0297837701,28.4997292959 L 18.0415027701,28.4997292959 Z M 8.52197177014,4.01144829589 C 9.64697177014,2.88254129589 11.1743147701,2.25363529589 12.7719717701,2.25363529589 C 14.3657217701,2.25363529589 15.8930647701,2.88254129589 17.0180647701,4.01144829589 C 18.1469717701,5.14035429589 18.7797837701,6.67160429589 18.7797837701,8.26144829589 L 18.7797837701,28.1012912959 C 20.1157217701,29.0505102959 21.2172837701,30.2887912959 21.9985337701,31.7301982959 C 22.8461907701,33.2887912959 23.2875967701,35.0387912959 23.2875967701,36.8083222959 C 23.2875967701,39.5583222959 22.2094717701,42.1950412959 20.2875967701,44.1637912959 C 18.3657217701,46.1247292959 15.7524407701,47.2536352959 13.0063467701,47.3239482959 C 10.2602527701,47.3825412959 7.60009677014,46.3630102959 5.58837777014,44.4958222959 C 3.58447177014,42.6130102959 2.38915877014,40.0270722959 2.26415877014,37.2887912959 C 2.18212777014,35.4294162959 2.58056477014,33.5895722959 3.42822177014,31.9411352959 C 4.21728377014,30.4098852959 5.35790877014,29.0895722959 6.76025277014,28.1012912959 L 6.76025277014,8.26144829589 C 6.76025277014,6.67160429589 7.39306477014,5.14035429589 8.52197177014,4.01144829589" fill="currentColor" fill-rule="evenodd"/></svg>