<svg xmlns="http://www.w3.org/2000/svg" viewBox="0 0 29.436 43.847"><path d="M5.904 3.554L23.532 3.554C24.828 3.554 25.882 4.608 25.882 5.903L25.882 37.944C25.882 39.239 24.828 40.294 23.532 40.294L5.904 40.294C4.608 40.294 3.554 39.239 3.554 37.944L3.554 5.903C3.554 4.608 4.608 3.554 5.904 3.554M1.993 5.903L1.993 37.944C1.993 40.1 3.748 41.854 5.904 41.854L23.532 41.854C25.689 41.854 27.443 40.1 27.443 37.944L27.443 5.903C27.443 3.747 25.689 1.993 23.532 1.993L5.904 1.993C3.748 1.993 1.993 3.747 1.993 5.903" fill="currentColor"/><path d="M6.846 8.276C6.846 7.362 7.591 6.616 8.506 6.616L20.93 6.616C21.846 6.616 22.591 7.362 22.591 8.276L22.591 30.21C22.591 31.126 21.846 31.87 20.93 31.87L8.506 31.87C7.591 31.87 6.846 31.126 6.846 30.21L6.846 8.276M8.506 33.118L20.93 33.118C22.535 33.118 23.839 31.813 23.839 30.21L23.839 8.276C23.839 6.673 22.535 5.368 20.93 5.368L8.506 5.368C6.902 5.368 5.597 6.673 5.597 8.276L5.597 30.21C5.597 31.813 6.902 33.118 8.506 33.118" fill="currentColor"/><path d="M14.719 38.511C13.764 38.511 12.988 37.735 12.988 36.78C12.988 35.827 13.764 35.05 14.719 35.05C15.673 35.05 16.449 35.827 16.449 36.78C16.449 37.735 15.673 38.511 14.719 38.511M14.719 34.114C13.247 34.114 12.051 35.309 12.051 36.78C12.051 38.251 13.247 39.448 14.719 39.448C16.189 39.448 17.386 38.251 17.386 36.78C17.386 35.309 16.189 34.114 14.719 34.114" fill="currentColor"/></svg>