<?xml version="1.0" encoding="utf-8"?>
<!-- Generator: Adobe Illustrator 27.7.0, SVG Export Plug-In . SVG Version: 6.00 Build 0)  -->
<svg version="1.1" id="Layer_1" xmlns="http://www.w3.org/2000/svg" xmlns:xlink="http://www.w3.org/1999/xlink" x="0px" y="0px"
	 viewBox="0 0 220 66" style="enable-background:new 0 0 220 66;" xml:space="preserve">
<style type="text/css">
	.st0{fill:none;}
	.st1{fill:#EA0029;}
	.st2{fill:#040000;}
</style>
<g>
	<rect class="st0" width="220" height="66"/>
	<g>
		<g>
			<rect x="116.1" y="1.6" class="st1" width="9.7" height="42.5"/>
			<path class="st1" d="M89.6,24.6c-1.5-7.8-9-13.8-18-13.8c-10.1,0-18.3,7.5-18.3,16.7s8.2,16.7,18.3,16.7c6.4,0,12.4-3.1,15.7-8.1
				l-6.5-3.8c-2,3.1-5.4,5-9.2,5S64.3,34.2,63,30l-0.4-1.4h1.4l25.7-0.1C89.6,28.5,89.6,24.6,89.6,24.6z M62.5,24.2l0.4-1.4
				c1.3-4.3,4.8-7.1,8.7-7.1s7.4,2.9,8.7,7.1l0.4,1.4L62.5,24.2L62.5,24.2z"/>
			<rect x="130.2" y="12.9" class="st1" width="9.7" height="31.2"/>
			<path class="st1" d="M135,11.3c2.7,0,4.9-2.2,4.9-4.9s-2.2-4.9-4.9-4.9s-4.9,2.2-4.9,4.9S132.3,11.3,135,11.3z"/>
			<path class="st1" d="M161.7,19.7c4.5,0,8.1,3.1,8.1,6.9v17.6h9.7V23.9c0-6.5-5.9-11.8-13.2-11.8c-3.9,0-8.6,2.2-10.8,5.1
				l-1.9,2.4l0-6.9h-9.8V44h9.7v-16C153.6,24.3,157.2,19.6,161.7,19.7L161.7,19.7z"/>
			<path class="st1" d="M112.8,12.2c-0.2,0-0.5,0-0.7,0c-3.9,0-8.6,2.2-10.8,5.1l-1.9,2.4l0-6.9h-9.7v31.3h9.7V29.9
				c0-6.5,5.5-10.5,10.7-10.5c1,0,2,0.1,2.8,0.3V12.2L112.8,12.2z"/>
			<path class="st1" d="M16.1,44.1c3.8,0,7.4-1.2,10-3.3c2.5-2,3.9-4.7,3.9-7.4c0-3-1.1-5.2-3.4-6.7c-2.1-1.4-4.9-2.1-7.4-2.6
				c-3.8-0.9-7-1.7-7-4.7c0-1.2,0.5-3.9,4.7-3.9c1.7,0,3.1,1,3.8,2.5l7-2.4c-0.9-1.7-2.3-3.2-4.1-4.2c-2.3-1.4-5-2.1-7.9-2.1
				c-3.6,0-6.9,1-9.3,2.8c-2.4,1.8-3.7,4.2-3.7,6.9c0,2.9,1,5,3.1,6.5c1.9,1.3,4.4,2,6.9,2.6c3.9,1,7.8,2,7.8,6
				c0,1.8-2.1,3.8-5.1,3.8c-2.7,0-5-1.2-6.2-3.2L2,36C3.4,40.7,9.3,44.1,16.1,44.1L16.1,44.1z"/>
			<path class="st1" d="M207.8,17.7c-2.8-3.2-6.7-5.1-10.8-5.1c-8.1,0-14.6,7-14.6,15.6s6.6,15.6,14.6,15.6c4.1,0,8-1.8,10.8-5.1
				l1.7-2l0,8.6c0,4.3-2.7,6.5-8.1,6.5c-4.5,0-8.3-0.3-9.2-4.4h-8.6c0.7,6.4,7.5,10.8,16.6,10.8c4.9,0,9.4-1.2,12.8-3.3
				c3.2-2,5-4.7,5-7.4l0-34.1h-8.5l0,6.2L207.8,17.7L207.8,17.7z M199.3,37.5c-5.3,0-9.6-4-9.6-9s4.3-9,9.6-9s9.6,4,9.6,9
				S204.6,37.5,199.3,37.5z"/>
			<polygon class="st1" points="46.2,12.5 46.2,1.6 36.4,1.6 36.4,12.5 30,12.5 30,18.1 36.4,18.1 36.4,44.1 46.2,44.1 46.2,18.1 
				52.6,18.1 52.6,12.5 			"/>
		</g>
		<g>
			<ellipse class="st2" cx="56.3" cy="48.5" rx="1.1" ry="1.2"/>
			<path class="st2" d="M99.5,50.3c-2.3,0-4.2,1.5-4.2,1.5v-1.2h-2.1v12.9h2.3V59l0.5,0.4c0.7,0.5,1.5,1.2,3.5,1.2
				c1.2,0,2.2-0.3,3.2-0.9l0.1,0c1.5-1,2.5-2.5,2.5-4.3C105.2,52.9,103.1,50.3,99.5,50.3L99.5,50.3z M99.2,58.9
				c-1.6,0-3.8-1.1-3.8-3.5c0-2.2,1.9-3.5,3.8-3.5s3.7,1.3,3.7,3.5C102.9,57.8,100.7,58.9,99.2,58.9L99.2,58.9z"/>
			<path class="st2" d="M109.4,51.6v-0.9h-2.1v9.6h2.3v-5.4c0-1.7,0.9-2.6,2.6-2.7v-1.8C110.9,50.3,109.4,51.6,109.4,51.6
				L109.4,51.6z"/>
			<path class="st2" d="M119.2,50.3c-3.4,0-6.1,2.3-6.1,5.1s2.7,5.1,6.1,5.1c2.9,0,6.1-1.8,6.1-5.1
				C125.2,52.6,122.5,50.3,119.2,50.3z M119.2,58.9c-1.9,0-3.8-1.3-3.8-3.5c0-2.4,2.3-3.5,3.8-3.5c2,0,3.8,1.6,3.8,3.5
				C122.9,57.2,121.5,58.9,119.2,58.9z"/>
			<path class="st2" d="M126.9,55.5c0,3.2,3,5.1,5.8,5.1c2.3,0,4.1-1.6,4.1-1.6v1.2h2.1v-13h-2.3v4.6l-0.5-0.4
				c-0.9-0.8-1.9-1.2-3.4-1.2C129.9,50.3,126.9,52.3,126.9,55.5L126.9,55.5z M133,52c2.1,0,3.8,1.6,3.8,3.5c0,1.7-1.5,3.5-3.8,3.5
				c-2.1,0-3.8-1.6-3.8-3.6C129.2,53.8,130.7,52,133,52z"/>
			<path class="st2" d="M143.6,55.6v-4.9h-2.3v5c0,0.8,0,2.4,0.8,3.4c0.5,0.6,1.6,1.5,3.8,1.5s3.4-1.3,3.4-1.3v1h2.1v-9.6h-2.3v4.9
				c0,2.1-1,3.4-2.7,3.4C144.5,58.9,143.6,57.8,143.6,55.6L143.6,55.6z"/>
			<path class="st2" d="M155.7,55.5c0-2.3,1.9-3.5,3.8-3.5s2.6,1,2.9,1.5h2.6c-1.4-3-4.9-3.1-5.6-3.1c-3.3,0-6.1,2.3-6.1,5.1
				c0,3.2,3.1,5.2,6.1,5.2c2.5,0,4.5-1.1,5.5-3h-2.6c-0.7,0.9-1.7,1.4-2.8,1.4C157.4,58.9,155.7,57.4,155.7,55.5L155.7,55.5z"/>
			<path class="st2" d="M178.8,54.6L178.8,54.6c-1.7-0.5-2.2-0.6-2.2-1.4c0-0.6,0.5-1.2,1.4-1.2c0.6,0,1.1,0.3,1.4,0.9h2.3
				c-0.3-1.6-2-2.5-3.6-2.5c-1.8,0-3.7,1.1-3.7,2.8s1.5,2.4,2.5,2.6c2.1,0.6,2.9,0.8,2.9,1.8c0,0.5-0.4,1.3-1.6,1.3
				c-1.3,0-1.6-0.9-1.8-1.3h-2.4c0.1,0.5,0.2,1.1,0.8,1.7c0.7,0.8,2,1.2,3.4,1.2c1.9,0,3.9-1.1,3.9-3.2
				C181.9,55.5,180.3,55,178.8,54.6L178.8,54.6z"/>
			<path class="st2" d="M15.7,50.3c-0.6,0-2.4,0-3.6,1.5l-0.2,0.3l-0.2-0.3c-1-1.3-2.4-1.5-3.2-1.5c-1.9,0-3.5,1.2-3.5,1.2v-0.9h-2
				v9.6h2.3v-4.8c0-1,0-3.5,2.6-3.5c1.7,0,2.7,1.1,2.7,2.9v5.3h2.3v-5c0-0.6,0-1.6,0.5-2.2c0.4-0.7,1.3-1.1,2.2-1.1
				c1.7,0,2.5,1,2.5,2.9v5.3h2.3v-5.6c0-1.6-0.5-2.5-0.8-2.8C19,51.3,17.9,50.3,15.7,50.3L15.7,50.3z"/>
			<path class="st2" d="M28.1,50.3c-3.2,0-5.7,2.2-5.7,5.1c0,3.4,2.8,5.2,5.5,5.2c1.4,0,3.1-0.6,4-1.5l0.5-0.5v1.7h2v-9.6h-2V52
				C32.4,52,30.5,50.3,28.1,50.3L28.1,50.3z M28.5,58.9c-2.2,0-3.9-1.5-3.9-3.4c0-1.7,1.4-3.5,3.9-3.5c1.9,0,3.8,1.2,3.8,3.5
				C32.3,57.5,30.7,58.9,28.5,58.9z"/>
			<path class="st2" d="M38.9,51.6v-0.9h-2.1v9.6h2.3v-5.4c0-1.7,0.9-2.6,2.6-2.7v-1.8C40.4,50.3,38.9,51.6,38.9,51.6L38.9,51.6z"/>
			<rect x="55.1" y="50.7" class="st2" width="2.3" height="9.6"/>
			<path class="st2" d="M65.5,50.3c-1.7,0-2.6,0.8-3.1,1.1l-0.5,0.4v-1.2h-2.1v9.6h2.3v-4.5c0-0.9,0-2,0.6-2.7c0.6-0.8,1.7-1,2.2-1
				c1.8,0,2.7,1.2,2.7,3.6v4.7h2.3V55c0-0.8,0-2.4-1-3.4C68,50.7,66.5,50.3,65.5,50.3z"/>
			<rect x="43.8" y="47.3" class="st2" width="2.3" height="13"/>
			<polygon class="st2" points="48.5,55.4 52.5,50.7 50,50.7 46.1,55.5 46.1,55.5 46.1,55.5 50.2,60.2 53.1,60.2 			"/>
			<path class="st2" d="M82.1,50.7H82v1.2c-0.3-0.2-0.9-0.7-1.8-1c-0.8-0.4-1.7-0.5-2.4-0.5c0,0,0,0,0,0c0,0,0,0,0,0
				c-2.8,0-4.9,1.5-5.6,3.8c-0.1,0.4-0.2,0.8-0.2,1.3c0,0.1,0,0.2,0,0.4c0.2,3.2,2.9,4.8,5.6,4.8c0,0,0.1,0,0.1,0c0.1,0,0.1,0,0.1,0
				c1.3,0,2.4-0.4,3.2-1.1c0.2-0.1,0.4-0.3,0.6-0.5l0.2-0.2l0.3-0.3v0.7c-0.2,2.4-2.2,3.5-4,3.5c-0.5,0-1.9,0-3.1-1.1h-2.7
				c1.2,2,3.6,2.8,5.5,2.8c0.6,0,5.1-0.1,6.1-4.1c0.1-0.5,0.2-1,0.2-1.6v-8L82.1,50.7L82.1,50.7z M78.2,58.9c-1.6,0-3.8-1.1-3.8-3.5
				c0-2.2,1.9-3.5,3.8-3.5s3.7,1.3,3.7,3.5C82,57.8,79.8,58.9,78.2,58.9L78.2,58.9z"/>
			<polygon class="st2" points="172.1,50.7 170.7,50.7 170.7,47.3 168.5,47.3 168.5,50.7 167.1,50.7 166.7,50.7 166.7,52.2 
				167.1,52.2 168.5,52.2 168.5,60.2 170.7,60.2 170.7,52.2 172.1,52.2 172.5,52.2 172.5,50.7 			"/>
		</g>
	</g>
</g>
</svg>
